<?xml version="1.0" encoding="UTF-8" standalone="no"?>
<!-- Created with Inkscape (http://www.inkscape.org/) -->

<svg
   width="279.91153mm"
   height="123.7408mm"
   viewBox="0 0 279.91153 123.7408"
   version="1.1"
   id="svg1"
   xml:space="preserve"
   xmlns="http://www.w3.org/2000/svg"
   xmlns:svg="http://www.w3.org/2000/svg"><defs
     id="defs1" /><g
     id="layer1"
     transform="translate(12.731046,-32.737355)"><path
       style="fill:#ffffff;stroke-width:23.9228"
       d="m 42.188597,32.737355 h 43.941715 l -17.753348,39.917136 43.974666,-0.07408 17.71758,-39.836716 h 137.11126 l -11.84027,26.621994 -43.93616,-0.0125 -11.86133,26.66934 43.97361,-0.0717 -11.06058,24.868931 h -43.94172 l -10.25493,23.05749 43.98432,-0.0958 -10.14792,22.6812 c -18.60044,0.0717 -74.38495,-0.11957 -92.98468,-0.27995 L 173.95641,32.866309 75.095047,156.3492 92.366741,117.515 H 48.424979 l -17.214437,38.8342 c -15.121104,-0.008 -43.941588,-1.3e-4 -43.941588,-1.3e-4 z"
       id="path1" /><path
       style="fill:#c69c73;fill-opacity:1;stroke-width:0.4;stroke-linecap:round;paint-order:markers stroke fill"
       d="m 130.06921,32.743695 43.8872,0.122614 -54.8456,123.316391 -44.015764,0.1665 z"
       id="path8" /></g></svg>
